# xmcd
#
# Track frame offsets:
#	150
#	18377
#	46040
#	73702
#
# Disc length: 1224 seconds
#
# Revision: 1
# Processed by: cddbd v1.5PL3 Copyright (c) Steve Scherf et al.
# Submitted via: CDex 1.50Beta5
#
DISCID=2a04c604
DTITLE=藤井フミヤ - ハートブレイク
DYEAR=1995
DGENRE=Pop
TTITLE0=ハートブレイク
TTITLE1=Labyrinth
TTITLE2=Labyrinth instrumental
TTITLE3=ハートブレイク instrumental
EXTD=
EXTT0=
EXTT1=
EXTT2=
EXTT3=
PLAYORDER=
